<svg id="visual" viewBox="0 0 900 600" width="900" height="600" xmlns="http://www.w3.org/2000/svg" xmlns:xlink="http://www.w3.org/1999/xlink" version="1.1"><rect x="0" y="0" width="900" height="600" fill="#001220"></rect><defs><linearGradient id="grad1_0" x1="33.3%" y1="0%" x2="100%" y2="100%"><stop offset="20%" stop-color="#001220" stop-opacity="1"></stop><stop offset="80%" stop-color="#001220" stop-opacity="1"></stop></linearGradient></defs><defs><linearGradient id="grad2_0" x1="0%" y1="0%" x2="66.7%" y2="100%"><stop offset="20%" stop-color="#001220" stop-opacity="1"></stop><stop offset="80%" stop-color="#001220" stop-opacity="1"></stop></linearGradient></defs><g transform="translate(900, 0)"><path d="M0 459.7C-20.5 435.8 -41 412 -64.8 408.9C-88.5 405.8 -115.5 423.5 -136 418.5C-156.5 413.4 -170.5 385.5 -189.3 371.5C-208.1 357.6 -231.7 357.6 -255.7 351.9C-279.7 346.3 -304.1 334.9 -313.2 313.2C-322.4 291.6 -316.2 259.5 -334.9 243.3C-353.7 227.2 -397.4 226.9 -409.6 208.7C-421.8 190.5 -402.5 154.3 -390.9 127C-379.3 99.7 -375.4 81.2 -388.2 61.5C-400.9 41.8 -430.3 20.9 -459.7 0L0 0Z" fill="#3362a8"></path></g><g transform="translate(0, 600)"><path d="M0 -459.7C22.5 -448.3 45 -436.8 68.8 -434.6C92.6 -432.4 117.7 -439.4 142.1 -437.2C166.4 -435 189.9 -423.7 204.3 -401C218.7 -378.2 224 -344.1 233.4 -321.2C242.7 -298.2 255.9 -286.5 280 -280C304.1 -273.6 339 -272.5 354.3 -257.4C369.7 -242.4 365.5 -213.4 378.7 -192.9C391.8 -172.5 422.3 -160.5 433.7 -140.9C445.1 -121.3 437.4 -94.2 438.5 -69.5C439.7 -44.7 449.7 -22.4 459.7 0L0 0Z" fill="#3362a8"></path></g></svg>